<svg width="32" height="32" xmlns="http://www.w3.org/2000/svg"><defs><linearGradient x1="50%" y1="0%" x2="50%" y2="100%" id="a"><stop stop-color="#00DFE7" offset="0%"/><stop stop-color="#00BCCB" offset="100%"/></linearGradient></defs><path d="m5.093.033 7.42 2.868-7.42 2.967v15.02l2.337-2.223c.384-.292.74-.271 1.068.064.328.335.328.652 0 .953-2.575 2.702-3.99 4.053-4.244 4.053-.254 0-1.61-1.351-4.065-4.053-.252-.426-.252-.765 0-1.017.25-.25.59-.25 1.016 0l2.071 2.224V.167c0-.161.606-.206 1.817-.134Z" transform="translate(9 4.132)" fill="url(#a)" fill-rule="nonzero"/></svg>