<svg width="32" height="32" xmlns="http://www.w3.org/2000/svg"><defs><linearGradient x1="50%" y1="0%" x2="50%" y2="100%" id="a"><stop stop-color="#00DFE7" offset="0%"/><stop stop-color="#00BCCB" offset="100%"/></linearGradient></defs><path d="M15.093 4.432v.588h7.267v1.698h-7.267v18.436l2.337-2.223c.384-.293.74-.272 1.068.063.328.335.328.653 0 .953C15.923 26.65 14.508 28 14.254 28c-.254 0-1.61-1.351-4.065-4.053-.252-.426-.252-.765 0-1.016.25-.252.59-.252 1.016 0l2.071 2.223V4.432c0-.241.432-.432.978-.432s.839.19.839.432Z" fill="url(#a)" fill-rule="nonzero"/></svg>