<svg width="32" height="32" fill="none" xmlns="http://www.w3.org/2000/svg"><path d="M15.505 5.47 15.992 4l.488 1.47c.395.016.782.062 1.161.117l.79-1.34.17 1.54c.372.094.736.21 1.092.35l1.03-1.162-.124 1.556c.348.17.689.364 1.014.565l1.254-.929-.441 1.494c.294.232.58.48.86.743l1.408-.674-.728 1.394c.248.294.488.595.705.913l1.525-.372-1.006 1.215c.185.333.356.681.503 1.03l1.58-.047-1.24.983c.109.356.202.712.28 1.084l1.555.263-1.409.735c.04.38.055.759.055 1.138l1.486.58-1.533.426c-.039.38-.1.75-.17 1.114l1.34.883-1.596.093c-.108.356-.24.696-.387 1.037L26.8 21.32l-1.587-.21c-.186.326-.38.643-.596.953l.89 1.339-1.517-.542c-.24.279-.488.542-.759.797l.62 1.486-1.394-.82a14.91 14.91 0 0 1-.914.642l.294 1.587-1.184-1.091c-.333.162-.681.309-1.03.44l-.039 1.618-.928-1.308a9.809 9.809 0 0 1-1.077.217L17.231 28l-.666-1.47a9.062 9.062 0 0 1-1.122 0L14.777 28l-.349-1.571c-.364-.054-.72-.124-1.076-.217l-.929 1.308-.039-1.602a11.271 11.271 0 0 1-1.037-.441L10.17 26.56l.294-1.572c-.317-.2-.627-.41-.929-.642l-1.378.813.612-1.47a9.408 9.408 0 0 1-.766-.806l-1.495.534.875-1.323a9.616 9.616 0 0 1-.604-.968l-1.571.21L6.33 20.23a12.23 12.23 0 0 1-.395-1.053l-1.563-.093 1.316-.867a11.57 11.57 0 0 1-.178-1.137L4 16.662l1.455-.573c0-.387.016-.774.055-1.153l-1.386-.72 1.533-.255c.077-.38.17-.743.278-1.107l-1.215-.967 1.556.038c.155-.356.325-.712.511-1.045l-.99-1.2 1.509.364c.217-.317.457-.626.712-.92l-.72-1.378 1.394.665c.278-.263.565-.518.867-.75l-.442-1.486 1.24.92c.332-.208.673-.402 1.021-.572l-.124-1.54 1.022 1.16c.356-.13.72-.247 1.1-.34l.17-1.532.782 1.339c.38-.062.766-.1 1.161-.116l.015-.024Z" fill="url(#a)"/><defs><radialGradient id="a" cx="0" cy="0" r="1" gradientUnits="userSpaceOnUse" gradientTransform="rotate(115.017 9.285 9.698) scale(22.9195 20.0013)"><stop stop-color="#FFFC00"/><stop offset=".568" stop-color="#F8BA28"/></radialGradient></defs></svg>
