<svg width="32" height="32" fill="none" xmlns="http://www.w3.org/2000/svg"><g filter="url(#a)"><path d="M19.376 7.227a4.083 4.083 0 0 1 2.009-.524c2.116 0 3.876 1.6 4.099 3.698a3.558 3.558 0 0 1 4.383 2.472 3.557 3.557 0 0 1-4.73 4.276c-.56.41-1.298.65-2.116.65-.898 0-1.707-.303-2.285-.783-1.227.489-2.872.782-4.685.782-1.814 0-3.432-.293-4.65-.773A2.876 2.876 0 0 1 7 14.57c-.001-.88.39-1.671 1.013-2.205a1.305 1.305 0 0 1 .577-1.76c.116-.063.24-.098.374-.125a5.83 5.83 0 0 1-.08-.96C8.885 6.471 11.348 4 14.379 4a5.48 5.48 0 0 1 4.997 3.218v.01Z" fill="url(#b)"/></g><g filter="url(#c)"><path d="M17.059 11.956a5.108 5.108 0 0 1 2.44-.634 5.032 5.032 0 0 1 4.997 4.5 4.354 4.354 0 0 1 5.348 3.015c.097.38.156.77.156 1.161a4.33 4.33 0 0 1-5.914 4.04c-.683.498-1.581.801-2.577.801-1.103 0-2.088-.37-2.781-.956-1.493.595-3.494.956-5.71.956-2.215 0-4.177-.361-5.66-.937A3.511 3.511 0 0 1 2 20.916c0-1.074.478-2.04 1.23-2.694a1.595 1.595 0 0 1 1.151-2.294 6.584 6.584 0 0 1-.097-1.16c0-3.71 3.006-6.725 6.705-6.725a6.668 6.668 0 0 1 6.08 3.923l-.01-.01Z" fill="url(#d)"/></g><path d="M12.844 26.236h-1.838l1.3 1.3c.21.2.221.527.02.728l-.02.021c-.212.212-.645.106-.761 0l-1.3-1.299v1.838a.54.54 0 0 1-.56.539.56.56 0 0 1-.559-.539v-1.838l-1.299 1.3c-.264.295-.644.105-.75 0-.105-.106-.211-.55 0-.761l1.3-1.3H6.538c-.296 0-.539-.263-.539-.559 0-.296.243-.56.539-.56h1.837l-1.299-1.299a.523.523 0 0 1 0-.75.523.523 0 0 1 .75 0l1.3 1.3v-1.828c.03-.306.295-.549.601-.528a.568.568 0 0 1 .528.528v1.838l1.3-1.299a.535.535 0 0 1 .76 0 .535.535 0 0 1 0 .76l-1.3 1.3h1.838c.307 0 .539.242.539.538v.032a.54.54 0 0 1-.539.538h-.01Zm11.617 0h-1.837l1.299 1.3c.211.2.222.527.02.728l-.02.021c-.211.212-.644.106-.76 0l-1.3-1.299v1.838a.54.54 0 0 1-.56.539.56.56 0 0 1-.56-.539v-1.838l-1.298 1.3c-.264.295-.645.105-.75 0-.106-.106-.211-.55 0-.761l1.299-1.3h-1.838a.569.569 0 0 1-.549-.559c0-.296.243-.56.55-.56h1.837l-1.3-1.299a.523.523 0 0 1 0-.75.523.523 0 0 1 .75 0l1.3 1.3v-1.828a.564.564 0 0 1 .591-.528.568.568 0 0 1 .528.528v1.838l1.3-1.299a.535.535 0 0 1 .76 0 .535.535 0 0 1 0 .76l-1.3 1.3h1.838c.307 0 .539.242.539.538v.032a.54.54 0 0 1-.539.538Z" fill="url(#e)"/><defs><linearGradient id="b" x1="21.998" y1="6.667" x2="17.953" y2="15.398" gradientUnits="userSpaceOnUse"><stop stop-color="#D7D7E1"/><stop offset=".48" stop-color="#8F95A3"/></linearGradient><linearGradient id="d" x1="20.348" y1="11.127" x2="11.681" y2="27.201" gradientUnits="userSpaceOnUse"><stop stop-color="#fff"/><stop offset="1" stop-color="#8F95A3"/></linearGradient><linearGradient id="e" x1="15.442" y1="24.612" x2="15.442" y2="29.699" gradientUnits="userSpaceOnUse"><stop offset=".26" stop-color="#4ACCFF"/><stop offset=".724" stop-color="#18A2D9"/></linearGradient><filter id="a" x="6.803" y="3.803" width="23.788" height="14.587" filterUnits="userSpaceOnUse" color-interpolation-filters="sRGB"><feFlood flood-opacity="0" result="BackgroundImageFix"/><feColorMatrix in="SourceAlpha" values="0 0 0 0 0 0 0 0 0 0 0 0 0 0 0 0 0 0 127 0" result="hardAlpha"/><feOffset dx=".197" dy=".197"/><feGaussianBlur stdDeviation=".197"/><feComposite in2="hardAlpha" operator="out"/><feColorMatrix values="0 0 0 0 0 0 0 0 0 0 0 0 0 0 0 0 0 0 0.05 0"/><feBlend in2="BackgroundImageFix" result="effect1_dropShadow_362_1197"/><feBlend in="SourceGraphic" in2="effect1_dropShadow_362_1197" result="shape"/></filter><filter id="c" x="1.8" y="7.443" width="28.8" height="17.596" filterUnits="userSpaceOnUse" color-interpolation-filters="sRGB"><feFlood flood-opacity="0" result="BackgroundImageFix"/><feColorMatrix in="SourceAlpha" values="0 0 0 0 0 0 0 0 0 0 0 0 0 0 0 0 0 0 127 0" result="hardAlpha"/><feOffset dx=".2" dy="-.2"/><feGaussianBlur stdDeviation=".2"/><feComposite in2="hardAlpha" operator="out"/><feColorMatrix values="0 0 0 0 0 0 0 0 0 0 0 0 0 0 0 0 0 0 0.05 0"/><feBlend in2="BackgroundImageFix" result="effect1_dropShadow_362_1197"/><feBlend in="SourceGraphic" in2="effect1_dropShadow_362_1197" result="shape"/></filter></defs></svg>
