<svg width="32" height="32" fill="none" xmlns="http://www.w3.org/2000/svg"><g filter="url(#a)"><path d="M19.376 7.227a4.083 4.083 0 0 1 2.009-.524c2.116 0 3.876 1.6 4.099 3.698a3.558 3.558 0 0 1 4.383 2.472 3.557 3.557 0 0 1-4.73 4.276c-.56.41-1.298.65-2.116.65-.898 0-1.707-.303-2.285-.783-1.227.489-2.872.782-4.685.782-1.814 0-3.432-.293-4.65-.773A2.876 2.876 0 0 1 7 14.57c-.001-.88.39-1.671 1.013-2.205a1.305 1.305 0 0 1 .577-1.76c.116-.063.24-.098.374-.125a5.83 5.83 0 0 1-.08-.96C8.885 6.471 11.348 4 14.379 4a5.48 5.48 0 0 1 4.997 3.218v.01Z" fill="url(#b)"/></g><g filter="url(#c)"><path d="M17.059 11.956a5.108 5.108 0 0 1 2.44-.634 5.032 5.032 0 0 1 4.997 4.5 4.354 4.354 0 0 1 5.348 3.015c.097.38.156.77.156 1.161a4.33 4.33 0 0 1-5.914 4.04c-.683.498-1.581.801-2.577.801-1.103 0-2.088-.37-2.781-.956-1.493.595-3.494.956-5.71.956-2.215 0-4.177-.361-5.66-.937A3.511 3.511 0 0 1 2 20.916c0-1.074.478-2.04 1.23-2.694a1.595 1.595 0 0 1 1.151-2.294 6.584 6.584 0 0 1-.097-1.16c0-3.71 3.006-6.725 6.705-6.725a6.668 6.668 0 0 1 6.08 3.923l-.01-.01Z" fill="url(#d)"/></g><path fill-rule="evenodd" clip-rule="evenodd" d="M18.489 25.749c-.763-.454-1.07-1.347-.686-2 .383-.65 3.781-3.863 4.02-3.746.24.117-.872 4.737-1.256 5.388-.383.653-1.314.815-2.078.358Z" fill="url(#e)"/><path fill-rule="evenodd" clip-rule="evenodd" d="M8.775 25.749c-.762-.454-1.07-1.347-.685-2 .383-.65 3.781-3.863 4.02-3.746.24.117-.872 4.737-1.257 5.388-.383.653-1.313.815-2.078.358Z" fill="url(#f)"/><path fill-rule="evenodd" clip-rule="evenodd" d="M21.52 29.893c-.914-.544-1.282-1.615-.821-2.398.46-.779 4.534-4.631 4.82-4.491.288.14-1.045 5.68-1.507 6.46-.459.783-1.575.977-2.491.43Z" fill="url(#g)"/><path fill-rule="evenodd" clip-rule="evenodd" d="M12.02 29.893c-.914-.544-1.282-1.615-.821-2.398.46-.779 4.534-4.631 4.82-4.491.288.14-1.045 5.68-1.507 6.46-.459.783-1.575.977-2.491.43Z" fill="url(#h)"/><path fill-rule="evenodd" clip-rule="evenodd" d="M2.52 29.893c-.914-.544-1.282-1.615-.821-2.398.46-.779 4.534-4.631 4.82-4.491.288.14-1.045 5.68-1.507 6.46-.459.783-1.575.977-2.491.43Z" fill="url(#i)"/><defs><linearGradient id="b" x1="21.998" y1="6.667" x2="17.953" y2="15.398" gradientUnits="userSpaceOnUse"><stop stop-color="#D7D7E1"/><stop offset=".48" stop-color="#8F95A3"/></linearGradient><linearGradient id="d" x1="20.348" y1="11.127" x2="11.681" y2="27.201" gradientUnits="userSpaceOnUse"><stop stop-color="#fff"/><stop offset="1" stop-color="#8F95A3"/></linearGradient><linearGradient id="e" x1="19.028" y1="22.108" x2="16.737" y2="24.032" gradientUnits="userSpaceOnUse"><stop stop-color="#3794FA"/><stop offset="1" stop-color="#83BEFF"/></linearGradient><linearGradient id="f" x1="9.315" y1="22.108" x2="7.024" y2="24.032" gradientUnits="userSpaceOnUse"><stop stop-color="#3794FA"/><stop offset="1" stop-color="#83BEFF"/></linearGradient><linearGradient id="g" x1="22.168" y1="25.527" x2="19.421" y2="27.835" gradientUnits="userSpaceOnUse"><stop stop-color="#3794FA"/><stop offset="1" stop-color="#83BEFF"/></linearGradient><linearGradient id="h" x1="12.668" y1="25.527" x2="9.921" y2="27.835" gradientUnits="userSpaceOnUse"><stop stop-color="#3794FA"/><stop offset="1" stop-color="#83BEFF"/></linearGradient><linearGradient id="i" x1="3.168" y1="25.527" x2=".421" y2="27.835" gradientUnits="userSpaceOnUse"><stop stop-color="#3794FA"/><stop offset="1" stop-color="#83BEFF"/></linearGradient><filter id="a" x="6.803" y="3.803" width="23.788" height="14.587" filterUnits="userSpaceOnUse" color-interpolation-filters="sRGB"><feFlood flood-opacity="0" result="BackgroundImageFix"/><feColorMatrix in="SourceAlpha" values="0 0 0 0 0 0 0 0 0 0 0 0 0 0 0 0 0 0 127 0" result="hardAlpha"/><feOffset dx=".197" dy=".197"/><feGaussianBlur stdDeviation=".197"/><feComposite in2="hardAlpha" operator="out"/><feColorMatrix values="0 0 0 0 0 0 0 0 0 0 0 0 0 0 0 0 0 0 0.05 0"/><feBlend in2="BackgroundImageFix" result="effect1_dropShadow_355_885"/><feBlend in="SourceGraphic" in2="effect1_dropShadow_355_885" result="shape"/></filter><filter id="c" x="1.8" y="7.443" width="28.8" height="17.596" filterUnits="userSpaceOnUse" color-interpolation-filters="sRGB"><feFlood flood-opacity="0" result="BackgroundImageFix"/><feColorMatrix in="SourceAlpha" values="0 0 0 0 0 0 0 0 0 0 0 0 0 0 0 0 0 0 127 0" result="hardAlpha"/><feOffset dx=".2" dy="-.2"/><feGaussianBlur stdDeviation=".2"/><feComposite in2="hardAlpha" operator="out"/><feColorMatrix values="0 0 0 0 0 0 0 0 0 0 0 0 0 0 0 0 0 0 0.05 0"/><feBlend in2="BackgroundImageFix" result="effect1_dropShadow_355_885"/><feBlend in="SourceGraphic" in2="effect1_dropShadow_355_885" result="shape"/></filter></defs></svg>
