<svg width="32" height="32" fill="none" xmlns="http://www.w3.org/2000/svg"><path d="m15.104 5.07.488-1.47.488 1.47c.395.016.782.062 1.161.117l.79-1.34.17 1.54c.372.094.736.21 1.092.35l1.03-1.162-.124 1.556c.348.17.689.364 1.014.565l1.254-.929-.441 1.494c.294.232.58.48.86.743l1.408-.674-.728 1.394c.248.294.488.595.705.913l1.525-.372-1.006 1.215c.186.333.356.681.503 1.03l1.58-.047-1.24.983c.109.356.202.712.28 1.084l1.555.263-1.409.735c.039.38.054.759.054 1.138l1.487.58-1.533.426c-.039.38-.1.75-.17 1.114l1.34.883-1.596.093c-.108.356-.24.696-.387 1.037L26.4 20.92l-1.587-.21c-.186.326-.38.643-.596.953l.89 1.339-1.517-.542c-.24.279-.488.542-.76.797l.62 1.486-1.393-.82c-.294.224-.604.44-.914.642l.294 1.587-1.184-1.091c-.333.162-.681.309-1.03.44l-.038 1.618-.93-1.308a9.806 9.806 0 0 1-1.076.217l-.348 1.571-.666-1.47a9.06 9.06 0 0 1-1.122 0l-.666 1.47-.349-1.571c-.364-.054-.72-.124-1.076-.217l-.929 1.308-.038-1.602a11.298 11.298 0 0 1-1.038-.441L9.77 26.16l.295-1.57a12.43 12.43 0 0 1-.93-.643l-1.378.813.612-1.47a9.408 9.408 0 0 1-.766-.806l-1.495.534.875-1.323a9.616 9.616 0 0 1-.604-.968l-1.571.21L5.93 19.83c-.147-.34-.278-.697-.395-1.053l-1.563-.093 1.316-.867a11.57 11.57 0 0 1-.178-1.137l-1.51-.418 1.455-.573c0-.387.016-.774.055-1.153l-1.386-.72 1.533-.255c.077-.38.17-.743.278-1.107l-1.215-.968 1.556.04c.155-.357.325-.713.511-1.046l-.99-1.2 1.509.365c.217-.318.457-.627.712-.921l-.72-1.378 1.394.665c.278-.263.565-.518.867-.75l-.442-1.486 1.24.92c.332-.208.673-.402 1.021-.572l-.124-1.54 1.022 1.16c.356-.13.72-.247 1.1-.34l.17-1.532.782 1.339c.38-.062.766-.1 1.161-.116l.015-.024Z" fill="url(#a)"/><g filter="url(#b)"><path d="M2 13.47c0-1.149.76-2.137 1.816-2.434a4.337 4.337 0 0 1-.025-.436c0-2.203 1.757-4 3.917-4 1.487 0 2.851.888 3.509 2.243A2.572 2.572 0 0 1 14 9.656a2.892 2.892 0 0 1 1.462-.401c1.463 0 2.68 1.089 2.906 2.53.059.004 1.595.014 1.654.024.971.171 1.712 1.04 1.712 2.078 0 1.039-.8 1.973-1.825 2.098-.079.01-1.63.015-1.713.015H4.469C3.109 16 2 14.87 2 13.476v-.005Z" fill="url(#c)"/></g><defs><radialGradient id="a" cx="0" cy="0" r="1" gradientUnits="userSpaceOnUse" gradientTransform="rotate(115.017 9.213 9.37) scale(22.9195 20.0013)"><stop stop-color="#FFFC00"/><stop offset=".568" stop-color="#F8BA28"/></radialGradient><linearGradient id="c" x1="27" y1="27.3" x2="2" y2="3.3" gradientUnits="userSpaceOnUse"><stop offset=".057" stop-color="#fff"/><stop offset=".533" stop-color="#F5F5F5"/><stop offset="1" stop-color="#A1A6B3"/></linearGradient><filter id="b" x="1.7" y="6.4" width="20.534" height="10.2" filterUnits="userSpaceOnUse" color-interpolation-filters="sRGB"><feFlood flood-opacity="0" result="BackgroundImageFix"/><feColorMatrix in="SourceAlpha" values="0 0 0 0 0 0 0 0 0 0 0 0 0 0 0 0 0 0 127 0" result="hardAlpha"/><feOffset dx=".1" dy=".2"/><feGaussianBlur stdDeviation=".2"/><feComposite in2="hardAlpha" operator="out"/><feColorMatrix values="0 0 0 0 0 0 0 0 0 0 0 0 0 0 0 0 0 0 0.05 0"/><feBlend in2="BackgroundImageFix" result="effect1_dropShadow_306_5345"/><feBlend in="SourceGraphic" in2="effect1_dropShadow_306_5345" result="shape"/></filter></defs></svg>
