<svg width="32" height="32" fill="none" xmlns="http://www.w3.org/2000/svg"><path d="m15.104 5.07.488-1.47.488 1.47c.395.016.782.062 1.161.117l.79-1.34.17 1.54c.372.094.736.21 1.092.35l1.03-1.162-.124 1.556c.348.17.689.364 1.014.565l1.254-.929-.441 1.494c.294.232.58.48.86.743l1.408-.674-.728 1.394c.248.294.488.595.705.913l1.525-.372-1.006 1.215c.186.333.356.681.503 1.03l1.58-.047-1.24.983c.109.356.202.712.28 1.084l1.555.263-1.409.735c.039.38.054.759.054 1.138l1.487.58-1.533.426c-.039.38-.1.75-.17 1.114l1.34.883-1.596.093c-.108.356-.24.696-.387 1.037L26.4 20.92l-1.587-.21c-.186.326-.38.643-.596.953l.89 1.339-1.517-.542c-.24.279-.488.542-.76.797l.62 1.486-1.393-.82c-.294.224-.604.44-.914.642l.294 1.587-1.184-1.091c-.333.162-.681.309-1.03.44l-.038 1.618-.93-1.308a9.806 9.806 0 0 1-1.076.217l-.348 1.571-.666-1.47a9.06 9.06 0 0 1-1.122 0l-.666 1.47-.349-1.571c-.364-.054-.72-.124-1.076-.217l-.929 1.308-.038-1.602a11.298 11.298 0 0 1-1.038-.441L9.77 26.16l.295-1.57a12.43 12.43 0 0 1-.93-.643l-1.378.813.612-1.47a9.408 9.408 0 0 1-.766-.806l-1.495.534.875-1.323a9.616 9.616 0 0 1-.604-.968l-1.571.21L5.93 19.83c-.147-.34-.278-.697-.395-1.053l-1.563-.093 1.316-.867a11.57 11.57 0 0 1-.178-1.137l-1.51-.418 1.455-.573c0-.387.016-.774.055-1.153l-1.386-.72 1.533-.255c.077-.38.17-.743.278-1.107l-1.215-.968 1.556.04c.155-.357.325-.713.511-1.046l-.99-1.2 1.509.365c.217-.318.457-.627.712-.921l-.72-1.378 1.394.665c.278-.263.565-.518.867-.75l-.442-1.486 1.24.92c.332-.208.673-.402 1.021-.572l-.124-1.54 1.022 1.16c.356-.13.72-.247 1.1-.34l.17-1.532.782 1.339c.38-.062.766-.1 1.161-.116l.015-.024Z" fill="url(#a)"/><g filter="url(#b)"><path d="M20.75 14.389a3.61 3.61 0 0 1 1.745-.454 3.603 3.603 0 0 1 3.573 3.21A3.106 3.106 0 0 1 30 20.136a3.1 3.1 0 0 1-3.087 3.106c-.39 0-.771-.074-1.13-.211a3.17 3.17 0 0 1-1.84.57c-.782 0-1.49-.264-1.987-.676-1.068.422-2.495.676-4.08.676-1.586 0-2.982-.254-4.039-.676-.402.243-.856.38-1.321.38A2.514 2.514 0 0 1 10 20.79c0-.771.349-1.458.877-1.922a1.134 1.134 0 0 1 .508-1.532c.106-.053.211-.085.317-.106a4.792 4.792 0 0 1 4.715-5.63 4.777 4.777 0 0 1 4.344 2.8l-.01-.011Z" fill="url(#c)"/></g><defs><radialGradient id="a" cx="0" cy="0" r="1" gradientUnits="userSpaceOnUse" gradientTransform="rotate(115.017 9.213 9.37) scale(22.9195 20.0013)"><stop stop-color="#FFFC00"/><stop offset=".568" stop-color="#F8BA28"/></radialGradient><linearGradient id="c" x1="9.52" y1="7.2" x2="29.52" y2="29.7" gradientUnits="userSpaceOnUse"><stop stop-color="#fff"/><stop offset=".391" stop-color="#F5F5F5"/><stop offset=".971" stop-color="#8F95A3"/></linearGradient><filter id="b" x="9.4" y="11" width="20.8" height="12.8" filterUnits="userSpaceOnUse" color-interpolation-filters="sRGB"><feFlood flood-opacity="0" result="BackgroundImageFix"/><feColorMatrix in="SourceAlpha" values="0 0 0 0 0 0 0 0 0 0 0 0 0 0 0 0 0 0 127 0" result="hardAlpha"/><feOffset dx="-.2" dy="-.2"/><feGaussianBlur stdDeviation=".2"/><feComposite in2="hardAlpha" operator="out"/><feColorMatrix values="0 0 0 0 0 0 0 0 0 0 0 0 0 0 0 0 0 0 0.05 0"/><feBlend in2="BackgroundImageFix" result="effect1_dropShadow_306_5349"/><feBlend in="SourceGraphic" in2="effect1_dropShadow_306_5349" result="shape"/></filter></defs></svg>
