<svg width="32" height="32" fill="none" xmlns="http://www.w3.org/2000/svg"><g clip-path="url(#a)"><path d="m19.327 3.925.406-1.225.407 1.225c.329.013.652.052.968.097l.658-1.116.142 1.284c.31.077.613.174.91.29l.857-.967-.103 1.296c.29.142.574.303.845.47l1.046-.773-.368 1.245c.245.193.484.4.716.619l1.174-.561-.606 1.16c.206.246.406.497.587.762l1.27-.31-.838 1.013c.155.277.297.567.42.857l1.316-.038-1.033.819c.09.296.168.593.233.903l1.296.219-1.174.613c.032.316.045.632.045.948l1.239.483-1.277.355c-.033.316-.084.626-.142.929l1.116.735-1.33.078c-.09.296-.2.58-.322.864l.955.935-1.323-.174c-.154.27-.316.535-.496.793l.742 1.116-1.265-.451a8.75 8.75 0 0 1-.632.664l.516 1.238-1.161-.683c-.245.186-.504.367-.762.535l.245 1.322-.987-.91c-.277.136-.567.259-.858.368l-.032 1.348-.774-1.09c-.29.078-.594.136-.897.18l-.29 1.31-.555-1.225c-.31.019-.62.019-.935 0L18.72 22.7l-.29-1.31a8.503 8.503 0 0 1-.898-.18l-.774 1.09-.032-1.335a9.421 9.421 0 0 1-.864-.367l-.981.902.245-1.309a10.316 10.316 0 0 1-.774-.535l-1.149.677.51-1.225a7.846 7.846 0 0 1-.639-.671l-1.245.445.73-1.103a8.016 8.016 0 0 1-.504-.806l-1.31.174.936-.922c-.123-.284-.232-.58-.33-.878l-1.302-.077 1.096-.722a9.625 9.625 0 0 1-.148-.948L9.74 13.25l1.213-.477c0-.322.013-.645.045-.96l-1.155-.6L11.121 11c.064-.316.142-.62.232-.923l-1.013-.806 1.297.032c.129-.296.27-.593.426-.87l-.826-1 1.258.303c.18-.264.38-.522.593-.767l-.6-1.148 1.162.554c.232-.219.47-.432.722-.625l-.367-1.239 1.032.768a9.23 9.23 0 0 1 .851-.477l-.103-1.284.852.968c.296-.11.6-.207.916-.284l.142-1.277.651 1.116c.317-.052.64-.084.968-.097l.013-.02Z" fill="url(#b)"/><g filter="url(#c)"><path d="M17.059 12.914a5.108 5.108 0 0 1 2.44-.635 5.032 5.032 0 0 1 4.997 4.5 4.354 4.354 0 0 1 5.348 3.015c.097.38.156.771.156 1.161a4.33 4.33 0 0 1-5.914 4.04c-.683.499-1.581.801-2.577.801-1.103 0-2.088-.37-2.781-.956-1.493.595-3.494.956-5.71.956-2.215 0-4.177-.361-5.66-.937A3.511 3.511 0 0 1 2 21.873c0-1.074.478-2.04 1.23-2.694a1.595 1.595 0 0 1 1.151-2.293 6.585 6.585 0 0 1-.097-1.162C4.284 12.016 7.29 9 10.989 9a6.668 6.668 0 0 1 6.08 3.923l-.01-.01Z" fill="url(#d)"/></g></g><defs><radialGradient id="b" cx="0" cy="0" r="1" gradientUnits="userSpaceOnUse" gradientTransform="rotate(115.017 11.143 9.805) scale(19.0996 16.6677)"><stop stop-color="#FFFC00"/><stop offset=".568" stop-color="#F8BA28"/></radialGradient><linearGradient id="d" x1="20.348" y1="12.084" x2="11.681" y2="28.158" gradientUnits="userSpaceOnUse"><stop stop-color="#fff"/><stop offset="1" stop-color="#8F95A3"/></linearGradient><clipPath id="a"><path fill="#fff" transform="translate(2 2)" d="M0 0h28v24H0z"/></clipPath><filter id="c" x="1.8" y="8.4" width="28.8" height="17.596" filterUnits="userSpaceOnUse" color-interpolation-filters="sRGB"><feFlood flood-opacity="0" result="BackgroundImageFix"/><feColorMatrix in="SourceAlpha" values="0 0 0 0 0 0 0 0 0 0 0 0 0 0 0 0 0 0 127 0" result="hardAlpha"/><feOffset dx=".2" dy="-.2"/><feGaussianBlur stdDeviation=".2"/><feComposite in2="hardAlpha" operator="out"/><feColorMatrix values="0 0 0 0 0 0 0 0 0 0 0 0 0 0 0 0 0 0 0.05 0"/><feBlend in2="BackgroundImageFix" result="effect1_dropShadow_306_5315"/><feBlend in="SourceGraphic" in2="effect1_dropShadow_306_5315" result="shape"/></filter></defs></svg>
