<svg width="32" height="32" fill="none" xmlns="http://www.w3.org/2000/svg"><g filter="url(#a)"><path d="M19.376 8.184a4.083 4.083 0 0 1 2.009-.524c2.116 0 3.876 1.6 4.099 3.698a3.558 3.558 0 0 1 4.383 2.472 3.557 3.557 0 0 1-4.73 4.276c-.56.41-1.298.65-2.116.65-.898 0-1.707-.303-2.285-.783-1.227.489-2.872.782-4.685.782-1.814 0-3.432-.293-4.65-.773A2.882 2.882 0 0 1 7 15.528c0-.88.39-1.671 1.013-2.205a1.305 1.305 0 0 1 .577-1.76c.116-.062.24-.098.374-.125a5.83 5.83 0 0 1-.08-.96c0-3.05 2.463-5.52 5.494-5.52a5.48 5.48 0 0 1 4.997 3.218v.008Z" fill="url(#b)"/></g><g filter="url(#c)"><path d="M17.059 12.914a5.108 5.108 0 0 1 2.44-.635 5.032 5.032 0 0 1 4.997 4.5 4.354 4.354 0 0 1 5.348 3.015c.097.38.156.771.156 1.161a4.33 4.33 0 0 1-5.914 4.04c-.683.499-1.581.801-2.577.801-1.103 0-2.088-.37-2.781-.956-1.493.595-3.494.956-5.71.956-2.215 0-4.177-.361-5.66-.937A3.511 3.511 0 0 1 2 21.873c0-1.074.478-2.04 1.23-2.694a1.595 1.595 0 0 1 1.151-2.293 6.585 6.585 0 0 1-.097-1.162C4.284 12.016 7.29 9 10.989 9a6.668 6.668 0 0 1 6.08 3.923l-.01-.01Z" fill="url(#d)"/></g><defs><linearGradient id="b" x1="21.998" y1="7.624" x2="17.953" y2="16.355" gradientUnits="userSpaceOnUse"><stop stop-color="#D7D7E1"/><stop offset=".48" stop-color="#8F95A3"/></linearGradient><linearGradient id="d" x1="20.348" y1="12.084" x2="11.681" y2="28.158" gradientUnits="userSpaceOnUse"><stop stop-color="#fff"/><stop offset="1" stop-color="#8F95A3"/></linearGradient><filter id="a" x="6.803" y="4.76" width="23.788" height="14.587" filterUnits="userSpaceOnUse" color-interpolation-filters="sRGB"><feFlood flood-opacity="0" result="BackgroundImageFix"/><feColorMatrix in="SourceAlpha" values="0 0 0 0 0 0 0 0 0 0 0 0 0 0 0 0 0 0 127 0" result="hardAlpha"/><feOffset dx=".197" dy=".197"/><feGaussianBlur stdDeviation=".197"/><feComposite in2="hardAlpha" operator="out"/><feColorMatrix values="0 0 0 0 0 0 0 0 0 0 0 0 0 0 0 0 0 0 0.05 0"/><feBlend in2="BackgroundImageFix" result="effect1_dropShadow_306_5336"/><feBlend in="SourceGraphic" in2="effect1_dropShadow_306_5336" result="shape"/></filter><filter id="c" x="1.8" y="8.4" width="28.8" height="17.596" filterUnits="userSpaceOnUse" color-interpolation-filters="sRGB"><feFlood flood-opacity="0" result="BackgroundImageFix"/><feColorMatrix in="SourceAlpha" values="0 0 0 0 0 0 0 0 0 0 0 0 0 0 0 0 0 0 127 0" result="hardAlpha"/><feOffset dx=".2" dy="-.2"/><feGaussianBlur stdDeviation=".2"/><feComposite in2="hardAlpha" operator="out"/><feColorMatrix values="0 0 0 0 0 0 0 0 0 0 0 0 0 0 0 0 0 0 0.05 0"/><feBlend in2="BackgroundImageFix" result="effect1_dropShadow_306_5336"/><feBlend in="SourceGraphic" in2="effect1_dropShadow_306_5336" result="shape"/></filter></defs></svg>
