<svg width="32" height="32" fill="none" xmlns="http://www.w3.org/2000/svg"><path d="m15.482 5.468.49-1.473.492 1.473c.393.011.786.066 1.157.12l.786-1.342.174 1.539c.371.098.731.207 1.092.35l1.026-1.158-.12 1.56c.349.176.687.361 1.014.568l1.256-.927-.437 1.495c.295.23.578.48.862.742l1.408-.677-.731 1.397c.25.295.491.6.71.917l1.527-.37-1.004 1.21c.186.339.36.677.502 1.027l1.583-.044-1.244.982c.109.36.196.71.283 1.08l1.561.263-1.408.73c.044.383.055.765.055 1.136l1.484.578-1.539.426c-.043.382-.098.753-.174 1.113l1.342.884-1.594.099c-.109.36-.24.698-.381 1.036l1.145 1.124-1.582-.207a10.69 10.69 0 0 1-.6.95l.895 1.342-1.518-.546c-.24.284-.49.546-.763.797l.622 1.485-1.397-.82c-.295.23-.6.438-.917.645l.295 1.582-1.19-1.091a12.02 12.02 0 0 1-1.026.436l-.044 1.616-.927-1.31c-.35.098-.71.164-1.08.218l-.35 1.572-.666-1.473a9.67 9.67 0 0 1-1.124 0l-.666 1.473-.349-1.572c-.36-.054-.72-.12-1.08-.218l-.928 1.31-.044-1.605c-.36-.13-.71-.283-1.037-.436l-1.178 1.08.294-1.571a12.856 12.856 0 0 1-.927-.644l-1.376.808.612-1.474a8.916 8.916 0 0 1-.764-.808l-1.496.535.874-1.32a8.009 8.009 0 0 1-.6-.972l-1.572.208 1.124-1.103a12.1 12.1 0 0 1-.393-1.047l-1.56-.099 1.32-.862a10.604 10.604 0 0 1-.175-1.135L4 16.655l1.452-.567c0-.382.01-.775.054-1.157l-1.386-.72 1.539-.252c.076-.381.175-.742.284-1.102l-1.212-.971 1.561.044c.153-.36.327-.71.513-1.048l-.993-1.2 1.506.36c.218-.317.458-.623.71-.917l-.721-1.376 1.397.666c.284-.262.567-.524.862-.753L9.13 6.178l1.244.917c.338-.208.676-.404 1.026-.568l-.12-1.539 1.026 1.157c.36-.131.72-.251 1.102-.338l.175-1.528.785 1.342a10.13 10.13 0 0 1 1.157-.12V5.48l-.043-.01Z" fill="url(#a)"/><g filter="url(#b)"><path d="M4.786 14.326h4.56a1.28 1.28 0 1 0 0-2.562h-4.56a1.28 1.28 0 1 0 0 2.562Zm9.891 0h12.547a1.28 1.28 0 1 0 0-2.562H14.677a1.28 1.28 0 1 0 0 2.562Zm12.547 6.799h-11.39c-.709 0-1.282.573-1.282 1.27 0 .698.573 1.27 1.281 1.27h11.391c.708 0 1.28-.572 1.28-1.27 0-.697-.572-1.27-1.28-1.27ZM4.786 18.991h15.566c.708 0 1.28-.573 1.28-1.27 0-.698-.572-1.282-1.28-1.282H4.786a1.28 1.28 0 0 0-1.281 1.281c0 .708.573 1.27 1.28 1.27Zm5.84 2.124h-5.84c-.708 0-1.281.572-1.281 1.27 0 .697.573 1.27 1.28 1.27h5.842c.708 0 1.28-.573 1.28-1.27 0-.698-.572-1.27-1.28-1.27Z" fill="url(#c)"/></g><defs><radialGradient id="a" cx="0" cy="0" r="1" gradientUnits="userSpaceOnUse" gradientTransform="rotate(115.02 9.109 9.41) scale(22.9305 20.0055)"><stop stop-color="#FFFC00"/><stop offset=".57" stop-color="#F8BA28"/></radialGradient><linearGradient id="c" x1="9.752" y1="26.081" x2="17.041" y2="12.806" gradientUnits="userSpaceOnUse"><stop stop-color="#9C7649"/><stop offset="1" stop-color="#D9A04B"/></linearGradient><filter id="b" x="3.205" y="11.264" width="25.8" height="12.701" filterUnits="userSpaceOnUse" color-interpolation-filters="sRGB"><feFlood flood-opacity="0" result="BackgroundImageFix"/><feColorMatrix in="SourceAlpha" values="0 0 0 0 0 0 0 0 0 0 0 0 0 0 0 0 0 0 127 0" result="hardAlpha"/><feOffset dx=".1" dy="-.1"/><feGaussianBlur stdDeviation=".2"/><feComposite in2="hardAlpha" operator="out"/><feColorMatrix values="0 0 0 0 0 0 0 0 0 0 0 0 0 0 0 0 0 0 0.05 0"/><feBlend in2="BackgroundImageFix" result="effect1_dropShadow_387_2186"/><feBlend in="SourceGraphic" in2="effect1_dropShadow_387_2186" result="shape"/></filter></defs></svg>
