<svg xmlns="http://www.w3.org/2000/svg" width="32" height="32" fill="none"><g clip-path="url(#a)"><mask id="b" width="32" height="32" x="0" y="0" maskUnits="userSpaceOnUse" style="mask-type:luminance"><path fill="#fff" d="M32 0H0v32h32V0Z"/></mask><g mask="url(#b)"><path fill="url(#c)" d="M19 9.1c2.1-1.1 5 .3 5.1 2.8 1.6-.4 3.3.5 3.8 2.1.5 2.3-1.3 4.2-3.6 3.9-.3 0-.5-.2-.5-.2-1.1.7-2.8.7-3.8-.2-2 .9-6 .9-8 0-2.6 1.5-5.1-2.1-2.9-4-.3-.5 0-1.2.5-1.5h.3c-.6-5.6 6.9-7.8 9-2.9h.1Z"/><path fill="url(#d)" d="M22.9 23.6c2.3 1 5.1-.9 5.1-3.4 0-2.4-2.3-4.3-4.7-3.6-.3-2.9-3.7-4.8-6.3-3.3-.9-2-2.1-3.3-5.2-3.3-3.6 0-6.1 3.3-5.7 6.8-.8 0-1.3 1.1-.9 1.9-.6.6-1 .8-1 2.3 0 2.2 2.6 3.9 4.5 2.7h1.7l1.4.3c1 .2 2.1.2 3.1 0l1.3-.3h7l-.3-.1Z"/><path fill="url(#e)" d="M4.8 15h4.6c.7 0 1.3-.6 1.3-1.3 0-.7-.6-1.3-1.3-1.3H4.8c-.7 0-1.3.6-1.3 1.3 0 .7.6 1.3 1.3 1.3Zm9.9 0h12.5c.7 0 1.3-.6 1.3-1.3 0-.7-.6-1.3-1.3-1.3H14.7c-.7 0-1.3.6-1.3 1.3 0 .7.6 1.3 1.3 1.3Zm12.5 6.8H15.8c-.7 0-1.3.6-1.3 1.3 0 .7.6 1.3 1.3 1.3h11.4c.7 0 1.3-.6 1.3-1.3 0-.7-.6-1.3-1.3-1.3ZM4.8 19.6h15.6c.7 0 1.3-.6 1.3-1.3 0-.7-.6-1.3-1.3-1.3H4.8c-.7 0-1.3.6-1.3 1.3 0 .7.6 1.3 1.3 1.3Zm5.8 2.2H4.8c-.7 0-1.3.6-1.3 1.3 0 .7.6 1.3 1.3 1.3h5.8c.7 0 1.3-.6 1.3-1.3 0-.7-.6-1.3-1.3-1.3Z"/></g></g><defs><linearGradient id="c" x1="20.9" x2="17.5" y1="8.6" y2="16.1" gradientUnits="userSpaceOnUse"><stop stop-color="#D7D7E1"/><stop offset=".5" stop-color="#8F95A3"/></linearGradient><linearGradient id="d" x1="19.8" x2="12.3" y1="12.6" y2="26.4" gradientUnits="userSpaceOnUse"><stop stop-color="#fff"/><stop offset="1" stop-color="#8F95A3"/></linearGradient><linearGradient id="e" x1="11" x2="18.3" y1="27.4" y2="14.2" gradientUnits="userSpaceOnUse"><stop stop-color="#9C7649"/><stop offset="1" stop-color="#D9A04B"/></linearGradient><clipPath id="a"><path fill="#fff" d="M0 0h32v32H0z"/></clipPath></defs></svg>
